name Walk2.mot
datacolumns 19
datarows 22
range 0.59600000 0.61700000
endheader

                time	   L_ground_force_vx	   L_ground_force_vy	   L_ground_force_vz	   L_ground_force_px	   L_ground_force_py	   L_ground_force_pz	   R_ground_force_vx	   R_ground_force_vy	   R_ground_force_vz	   R_ground_force_px	   R_ground_force_py	   R_ground_force_pz	   L_ground_torque_x	   L_ground_torque_y	   L_ground_torque_z	   R_ground_torque_x	   R_ground_torque_y	   R_ground_torque_z	
          0.59600000	         -2.54249803	         69.93934197	         -8.99709724	         -0.00098650	          0.00000000	          0.00156875	          0.00000002	         -0.00000007	         -0.00000000	         -0.00000000	          0.00000000	         -0.00000000	          0.00000000	          0.17563007	          0.00000000	          0.00000000	          0.00000000	          0.00000000	
          0.59700000	         -3.16730072	         76.39289329	         -9.78460662	         -0.01764314	          0.00000000	          0.00160093	          0.00000002	         -0.00000007	         -0.00000000	         -0.00000000	          0.00000000	         -0.00000000	          0.00000000	          0.18463827	          0.00000000	          0.00000000	         -0.00000000	          0.00000000	
          0.59800000	         -3.83125842	         83.03950069	        -10.58786339	         -0.03424741	          0.00000000	          0.00163423	          0.00000002	         -0.00000006	         -0.00000000	         -0.00000000	          0.00000000	         -0.00000000	          0.00000000	          0.19395023	          0.00000000	          0.00000000	         -0.00000000	          0.00000000	
          0.59900000	         -4.53538377	         89.87149930	        -11.40535061	         -0.05075463	          0.00000000	          0.00166854	          0.00000002	         -0.00000006	         -0.00000000	         -0.00000000	          0.00000000	          0.00000000	          0.00000000	          0.20355151	          0.00000000	          0.00000000	         -0.00000000	          0.00000000	
          0.60000000	         -5.28062928	         96.87992691	        -12.23538599	         -0.06711953	          0.00000000	          0.00170374	          0.00000002	         -0.00000005	         -0.00000000	          0.00000000	          0.00000000	          0.00000000	          0.00000000	          0.21342462	          0.00000000	          0.00000000	         -0.00000000	          0.00000000	
          0.60100000	         -6.06787714	        104.05442683	        -13.07611166	         -0.08329647	          0.00000000	          0.00173966	          0.00000002	         -0.00000005	         -0.00000000	          0.00000000	          0.00000000	          0.00000000	          0.00000000	          0.22354884	          0.00000000	          0.00000000	         -0.00000000	          0.00000000	
          0.60200000	         -6.89793137	        111.38319000	        -13.92549306	         -0.09924061	          0.00000000	          0.00177610	          0.00000002	         -0.00000004	         -0.00000000	          0.00000000	          0.00000000	          0.00000000	          0.00000000	          0.23389980	          0.00000000	          0.00000000	         -0.00000000	          0.00000000	
          0.60300000	         -7.77151366	        118.85297337	        -14.78132978	         -0.11491001	          0.00000000	          0.00181281	          0.00000002	         -0.00000003	         -0.00000000	          0.00000000	          0.00000000	          0.00000000	          0.00000000	          0.24444897	          0.00000000	          0.00000000	         -0.00000000	          0.00000000	
          0.60400000	         -8.68926162	        126.44920893	        -15.64127220	         -0.13026684	          0.00000000	          0.00184950	          0.00000002	         -0.00000002	         -0.00000000	          0.00000000	          0.00000000	          0.00000000	          0.00000000	          0.25516354	          0.00000000	          0.00000000	         -0.00000000	          0.00000000	
          0.60500000	         -9.65172655	        134.15620423	        -16.50283718	         -0.14527762	          0.00000000	          0.00188584	          0.00000002	         -0.00000001	          0.00000000	          0.00000000	          0.00000000	          0.00000000	          0.00000000	          0.26600662	          0.00000000	          0.00000000	         -0.00000000	          0.00000000	
          0.60600000	        -10.65936854	        141.95743622	        -17.36342105	         -0.15991296	          0.00000000	          0.00192147	          0.00000002	         -0.00000000	          0.00000000	          0.00000000	          0.00000000	          0.00000000	          0.00000000	          0.27693789	          0.00000000	          0.00000000	         -0.00000000	          0.00000000	
          0.60700000	        -11.71254565	        149.83592920	        -18.22030866	         -0.17414734	          0.00000000	          0.00195601	          0.00000002	          0.00000001	          0.00000000	          0.00000000	          0.00000000	          0.00000000	          0.00000000	          0.28791423	          0.00000000	          0.00000000	         -0.00000000	          0.00000000	
          0.60800000	        -12.81149488	        157.77468905	        -19.07067864	         -0.18795887	          0.00000000	          0.00198905	          0.00000002	          0.00000002	          0.00000000	          0.00000000	          0.00000000	          0.00000000	          0.00000000	          0.29889036	          0.00000000	          0.00000000	         -0.00000000	          0.00000000	
          0.60900000	        -13.95630468	        165.75714832	        -19.91160690	         -0.20132909	          0.00000000	          0.00202018	          0.00000002	          0.00000004	          0.00000000	          0.00000000	          0.00000000	          0.00000000	          0.00000000	          0.30981922	          0.00000000	          0.00000000	         -0.00000000	          0.00000000	
          0.61000000	        -15.14688171	        173.76756924	        -20.74007222	         -0.21424273	          0.00000000	          0.00204894	          0.00000002	          0.00000005	          0.00000000	          0.00000000	          0.00000000	          0.00000000	          0.00000000	          0.32065224	          0.00000000	          0.00000000	         -0.00000000	          0.00000000	
          0.61100000	        -16.38291702	        181.79135961	        -21.55296748	         -0.22668754	          0.00000000	          0.00207488	          0.00000002	          0.00000007	          0.00000001	          0.00000000	          0.00000000	          0.00000000	          0.00000000	          0.33133942	          0.00000000	          0.00000000	         -0.00000001	          0.00000000	
          0.61200000	        -17.66385691	        189.81527634	        -22.34711916	         -0.23865402	          0.00000000	          0.00209754	          0.00000002	          0.00000009	          0.00000001	          0.00000000	          0.00000000	          0.00000000	          0.00000000	          0.34182935	          0.00000000	          0.00000000	         -0.00000001	          0.00000000	
          0.61300000	        -18.98888265	        197.82751485	        -23.11931516	         -0.25013529	          0.00000000	          0.00211644	          0.00000002	          0.00000010	          0.00000001	          0.00000000	          0.00000000	          0.00000000	          0.00000000	          0.35206911	          0.00000000	          0.00000000	         -0.00000001	          0.00000000	
          0.61400000	        -20.35690090	        205.81770159	        -23.86633881	         -0.26112686	          0.00000000	          0.00213113	          0.00000002	          0.00000012	          0.00000001	          0.00000000	          0.00000000	          0.00000000	          0.00000000	          0.36200431	          0.00000000	          0.00000000	         -0.00000001	          0.00000000	
          0.61500000	        -21.76654428	        213.77681769	        -24.58500572	         -0.27162644	          0.00000000	          0.00214114	          0.00000002	          0.00000015	          0.00000001	          0.00000000	          0.00000000	          0.00000000	          0.00000000	          0.37157910	          0.00000000	          0.00000000	         -0.00000001	          0.00000000	
          0.61600000	        -23.21618013	        221.69708444	        -25.27219973	         -0.28163379	          0.00000000	          0.00214602	          0.00000002	          0.00000017	          0.00000001	          0.00000000	          0.00000000	          0.00000000	          0.00000000	          0.38073623	          0.00000000	          0.00000000	         -0.00000001	          0.00000000	
          0.61700000	        -24.70392518	        229.57183744	        -25.92490558	         -0.29115054	          0.00000000	          0.00214537	          0.00000002	          0.00000019	          0.00000001	          0.00000000	          0.00000000	          0.00000000	          0.00000000	          0.38941705	          0.00000000	          0.00000000	         -0.00000001	          0.00000000	
